<svg width="514" height="513" viewBox="0 0 514 513" fill="none" xmlns="http://www.w3.org/2000/svg">
<g clip-path="url(#clip0_24_205)">
<path opacity="0.4" d="M208.013 451.193C145.607 451.193 95.0158 465.029 95.0158 482.101C95.0158 499.173 145.607 513.01 208.013 513.01C270.42 513.01 321.001 499.164 321.001 482.096C321.001 465.029 270.425 451.193 208.013 451.193Z" fill="#34E13B"/>
<path opacity="0.72" d="M208.013 456.645C156.62 456.645 114.955 468.038 114.955 482.096C114.955 496.155 156.62 507.548 208.013 507.548C259.407 507.548 301.077 496.15 301.077 482.096C301.077 468.043 259.411 456.645 208.013 456.645Z" fill="#2BB32A"/>
<g opacity="0.79">
<path d="M432.486 17.1977L307.06 19.8008C305.04 19.8442 303.15 21.0951 302.817 22.6163L279.374 129.294C278.843 131.709 280.471 133.713 283.037 133.733L443.925 134.848C446.703 134.848 448.718 132.825 448.448 130.284L436.661 19.9215C436.497 18.3616 434.632 17.1494 432.486 17.1977Z" fill="url(#paint0_linear_24_205)"/>
<path d="M423.561 62.981L355.988 63.6571C353.693 63.6571 351.707 65.2122 351.533 67.1053L347.183 114.888C346.966 117.226 348.865 119.128 351.446 119.133L427.378 119.389C430.055 119.389 432.061 117.457 431.877 115.086L428.127 66.4051C427.977 64.4733 425.943 62.9568 423.57 62.981H423.561Z" fill="white"/>
<path d="M422.135 107.407L362.976 107.378L382.161 76.3005L398.905 93.2037L409.305 86.3313L422.135 107.407Z" fill="url(#paint1_linear_24_205)"/>
<path d="M421.768 21.8243L313.878 23.9541C312.341 23.9831 310.921 24.92 310.689 26.1032C310.457 27.2864 311.515 28.1992 313.066 28.1702L422.067 26.1225C423.706 26.0887 424.967 25.0987 424.856 23.901C424.744 22.7032 423.406 21.7808 421.768 21.8146V21.8243Z" fill="white"/>
<path d="M422.377 30.5559L312.235 32.4877C310.669 32.5167 309.215 33.5115 308.973 34.7237C308.732 35.9359 309.809 36.9066 311.389 36.8825L422.691 35.0328C424.363 35.0087 425.634 33.9752 425.532 32.7243C425.431 31.4735 424.029 30.5124 422.377 30.5414V30.5559Z" fill="white"/>
<path d="M423.014 39.6691L310.524 41.4174C308.925 41.4416 307.436 42.4751 307.18 43.7404C306.924 45.0057 308.026 46.0199 309.64 46.0006L423.343 44.3586C425.049 44.3344 426.344 43.2623 426.243 41.9438C426.141 40.6254 424.706 39.645 423.014 39.6691Z" fill="white"/>
<path d="M423.681 49.1881L308.736 50.7143C307.103 50.7143 305.576 51.8105 305.315 53.129C305.054 54.4474 306.166 55.5147 307.818 55.4954L424.024 54.09C425.769 54.09 427.093 52.9503 426.987 51.5884C426.88 50.2265 425.382 49.164 423.681 49.1881Z" fill="white"/>
<path d="M338.698 60.0737L306.871 60.4215C305.199 60.4215 303.638 61.5612 303.363 62.9376C303.087 64.314 304.223 65.4393 305.909 65.42L338.089 65.1109C339.804 65.1109 341.317 63.947 341.471 62.5464C341.626 61.1459 340.389 60.0544 338.693 60.0737H338.698Z" fill="white"/>
<path d="M337.461 70.2929L304.919 70.5681C303.213 70.5681 301.613 71.7514 301.323 73.1954C301.033 74.6394 302.188 75.8129 303.914 75.7985L336.818 75.5618C338.572 75.5618 340.123 74.3544 340.292 72.8911C340.462 71.4278 339.191 70.2784 337.461 70.2929Z" fill="white"/>
<path d="M336.161 80.9948L302.879 81.188C301.135 81.188 299.497 82.4147 299.192 83.9263C298.888 85.4379 300.062 86.6694 301.826 86.6646L335.499 86.4907C337.291 86.4907 338.881 85.2351 339.055 83.6993C339.229 82.1635 337.939 80.961 336.156 80.9755L336.161 80.9948Z" fill="white"/>
<path d="M334.803 92.1992L300.743 92.3103C298.955 92.3103 297.269 93.5853 296.955 95.1693C296.641 96.7534 297.834 98.067 299.642 98.067L334.097 98.0091C335.938 98.0091 337.567 96.7003 337.75 95.0872C337.934 93.4742 336.62 92.2137 334.803 92.2185V92.1992Z" fill="white"/>
<path d="M333.377 103.959H298.501C296.675 103.959 294.94 105.292 294.635 106.953C294.331 108.614 295.52 109.981 297.37 109.986L332.647 110.025C334.532 110.025 336.204 108.658 336.397 106.968C336.591 105.277 335.243 103.949 333.387 103.949L333.377 103.959Z" fill="white"/>
<path d="M331.879 116.303L296.148 116.211C295.227 116.216 294.335 116.526 293.61 117.094C292.886 117.661 292.371 118.454 292.147 119.346C291.799 121.099 293.041 122.533 294.935 122.538L331.101 122.693C333.034 122.693 334.754 121.244 334.967 119.491C335.18 117.738 333.793 116.308 331.889 116.303H331.879Z" fill="white"/>
</g>
<path d="M260.305 481.502C260.377 482.449 260.131 483.392 259.605 484.182C259.605 484.182 237.187 483.415 234.732 483.299C232.277 483.183 232.562 484.661 230.547 484.603C228.532 484.545 212.764 482.874 210.444 482.246C208.124 481.618 208.704 475.422 208.704 475.422L254.25 478.643L260.305 481.502Z" fill="#121E38"/>
<path d="M239.332 456.017C237.728 461.445 239.569 465.217 242.899 468.347C246.228 471.476 251.762 470.848 256.294 472.403C260.827 473.958 261.011 480.28 260.252 481.536C259.494 482.792 211.116 479.952 208.593 478.247C206.071 476.542 206.013 468.303 206.82 463.759C207.372 460.816 208.227 457.939 209.371 455.172L239.332 456.017Z" fill="#121E38"/>
<path d="M227.991 455.698L239.328 456.017C237.723 461.445 239.569 465.217 242.894 468.342C244.977 470.298 247.925 470.79 250.95 471.264C248.05 474.553 248.132 475.069 241.565 473.36C234.998 471.65 229.218 469.25 227.913 464.116C227.174 461.185 227.536 457.934 227.986 455.684L227.991 455.698Z" fill="#121E38"/>
<path d="M183.319 489.809C183.319 489.809 182.682 497.053 180.522 497.739C178.361 498.424 157.877 499.25 153.619 498.429C149.362 497.608 152.068 489.659 152.068 489.659L183.319 489.809Z" fill="#121E38"/>
<path d="M182.952 457.393C182.952 457.393 181.227 469.95 182.633 478.614C184.039 487.278 184.344 492.19 178.849 494.527C173.355 496.865 158.703 496.29 153.875 495.421C149.048 494.551 148.405 485.308 149.927 479.672C151.449 474.036 156.175 470.897 157.625 465.038C159.075 459.18 160.916 450.149 160.916 450.149L182.952 457.393Z" fill="#121E38"/>
<path d="M176.684 455.819C175.644 460.178 175.269 464.668 175.573 469.139C176.109 476.34 177.134 484.255 169.663 485.371C162.192 486.486 157.678 484.675 157.852 478.827C158.026 472.978 159.785 471.703 162.066 463.952C164.347 456.201 166.299 449.058 166.299 449.058L176.684 455.819Z" fill="#121E38"/>
<path d="M269.864 288.106C269.864 288.106 262.412 352.913 254.535 399.879C246.658 446.846 241.812 458.746 241.812 458.746C241.812 458.746 239.792 460.421 228.508 459.987C217.224 459.552 207.293 458.219 207.293 458.219L218.63 318.788L220.839 284.436L269.864 288.106Z" fill="#20282F"/>
<path d="M224.231 284.677L257.633 287.189L248.664 323.071L239.879 327.828L220.882 459.562C213.107 459.002 207.293 458.219 207.293 458.219L218.63 318.788L220.563 288.908L224.231 284.677Z" fill="#1B232C"/>
<path d="M255.202 283.344L244.088 318.464L236.979 320.019L189.896 458.915C189.896 458.915 185.19 463.913 171.668 461.812C158.147 459.712 155.721 450.222 155.721 450.222L193.695 280.152C193.695 280.152 208.037 270.551 218.824 270.575C229.61 270.599 255.202 283.344 255.202 283.344Z" fill="#293036"/>
<path d="M218.819 270.561C229.6 270.585 255.202 283.344 255.202 283.344L248.785 303.628C240.602 305.443 232.326 306.809 223.994 307.719C223.994 307.719 218.679 327.732 215.668 328.925C212.657 330.118 196.121 333.899 196.121 333.899L166.116 460.349C157.451 456.968 155.712 450.207 155.712 450.207L193.695 280.152C193.695 280.152 208.037 270.551 218.824 270.575L218.819 270.561Z" fill="#1B232C"/>
<path d="M360.449 192.179C360.449 192.179 368.079 193.246 369.418 194.463C370.756 195.68 372.138 198.5 374.641 201.162C377.145 203.823 373.815 205.677 370.689 205.305C367.562 204.933 364.034 198.868 363.208 198.742C362.382 198.616 358.187 199.225 356.442 199.321C354.698 199.418 353.76 197.713 355.476 195.018C357.191 192.324 360.424 192.179 360.424 192.179H360.449Z" fill="#EE8587"/>
<path d="M367.731 189.397C367.731 189.397 377.362 192.469 381.745 193.536C386.128 194.603 385.93 196.723 381.832 198.491C377.734 200.259 361.265 193.961 360.308 193.299C359.352 192.638 358.859 191.952 361.372 190.59C363.884 189.228 367.707 189.397 367.707 189.397H367.731Z" fill="#EE8587"/>
<path d="M364.551 186.659C364.551 186.659 372.887 186.456 378.976 185.645C385.065 184.833 387.892 185.814 386.133 189.209C384.374 192.604 367.286 192.107 363.222 192.797C359.158 193.488 356.457 193.198 357.796 190.769C359.134 188.34 364.561 186.659 364.561 186.659H364.551Z" fill="#EE8587"/>
<path d="M326.124 195.154C326.124 195.154 345.482 187.518 347.715 186.895C349.948 186.272 361.676 183.78 361.676 183.78C361.676 183.78 373.975 180.207 377.512 178.053C381.049 175.899 381.832 178.342 380.943 180.994C380.054 183.645 375.661 185.278 372.708 186.461C369.756 187.644 362.469 190.208 362.469 190.208C362.469 190.208 356.761 193.647 356.046 197.506C355.331 201.364 361.42 202.157 363.527 202.398C365.634 202.639 372.96 201.915 372.506 205.687C372.051 209.459 368.335 209.739 365.141 209.362C361.947 208.985 360.241 207.836 356.529 207.913C352.818 207.991 346.381 208.478 342.317 210.362C339.84 211.499 337.142 212.079 334.416 212.062L326.124 195.154Z" fill="#EE9585"/>
<path d="M249.273 166.993C259.382 165.139 267.018 171.914 269.444 176.903C271.869 181.892 288.063 210.961 288.063 210.961L321.446 190.677C325.727 192.246 326.761 193.294 330.98 195.989C330.98 195.989 336.624 200.278 339.422 205.6C343.346 213.066 343.472 216.5 343.472 216.5C343.472 216.5 290.673 256.778 286.932 258.26C283.192 259.743 275.605 258.449 275.605 258.449C275.605 258.449 243.082 214.901 237.38 198.563C231.678 182.225 249.273 166.993 249.273 166.993Z" fill="#B5BDF1"/>
<path d="M247.272 168.939C248.699 169.568 250.044 170.368 251.278 171.32C263.016 169.22 275.054 193.077 277.61 203.755C280.167 214.433 285.376 229.23 285.376 229.23C285.376 229.23 288.049 226.217 288.667 223.203C289.286 220.19 290.218 216.572 290.218 216.572L289.334 233.789L340.283 207.285C343.356 213.564 343.472 216.461 343.472 216.461C343.472 216.461 290.673 256.734 286.932 258.222C283.192 259.709 275.605 258.41 275.605 258.41C275.605 258.41 248.49 222.102 239.444 203.354C238.477 196.776 237.583 191.058 236.945 186.234C238.878 178.42 244.31 171.982 247.272 168.915V168.939Z" fill="#99A0D6"/>
<path d="M271.198 291.743C271.198 291.743 259.059 296.828 235.824 297.403C212.59 297.978 190.399 288.044 190.399 288.044C190.399 288.044 199.421 253.151 199.967 231.988C200.513 210.825 197 179.192 197.691 173.614C198.382 168.036 210.604 158.556 217.881 157.503C225.159 156.45 237.815 157.687 242.672 160.15C247.528 162.613 251.003 169.978 254.27 178.956C257.536 187.934 268.284 227.202 269.772 247.862C271.261 268.523 271.198 291.743 271.198 291.743Z" fill="#FDBB5B"/>
<path d="M211.58 159.797C214.383 160.253 217.122 161.042 219.737 162.149C232.702 193.497 233.751 232.915 233.809 252.537C233.867 272.159 234.65 282.644 242.802 288.956C250.955 295.268 263.746 292.168 263.746 292.168L263.635 294.042C257.725 295.491 248.422 297.113 235.824 297.422C225.676 297.673 215.697 295.916 207.709 293.853C206.303 266.842 202.041 182.824 202.678 166.167C205.35 163.659 208.343 161.516 211.58 159.797Z" fill="#FFA644"/>
<path d="M243.464 164.506L241.787 168.693C241.787 168.693 256.43 195.376 258.89 233.007C261.349 270.638 254.618 319.691 254.922 321.869C255.227 324.047 259.271 323.231 259.271 323.231L260.562 326.022L271.725 325.95C271.725 325.95 279.94 310.699 278.007 263.65C276.074 216.601 264.031 180.52 257.788 171.354C251.544 162.188 245.89 159.203 245.89 159.203L243.464 164.506Z" fill="#8484FD"/>
<path d="M245.871 159.194C245.871 159.194 248.113 160.382 251.332 163.54C250.679 165.153 250.123 166.216 250.123 166.216C250.123 166.216 262.731 193.657 267.25 230.448C271.768 267.238 268.356 303.078 266.998 312.201C266.08 318.368 269.564 323.101 271.918 325.525C271.812 325.762 271.734 325.921 271.734 325.921L260.566 325.989L259.276 323.202C259.276 323.202 255.231 324.004 254.927 321.835C254.622 319.667 261.359 270.643 258.894 232.973C256.43 195.303 241.792 168.655 241.792 168.655L243.469 164.467L245.871 159.194Z" fill="#706CD4"/>
<path d="M219.626 167.143L223.163 168.456C223.163 168.456 231.997 202.466 228.87 249.712C225.744 296.959 216.388 320.174 215.228 321.096C214.069 322.019 208.337 319.479 208.337 319.479L219.626 167.143Z" fill="#E0E4FF"/>
<path d="M212.822 157.967C212.822 157.967 195.241 162.719 188.094 167.577C180.947 172.436 178.429 183.259 180.724 200.205C183.02 217.152 192.994 240.493 193.99 246.467C194.985 252.441 166.749 302.204 166.14 306.729C165.531 311.254 176.027 320.734 189.442 322.97C202.857 325.206 210.256 322.289 210.256 322.289C210.256 322.289 226.121 286.204 225.439 240.082C224.758 193.961 220.529 164.82 220.529 164.82L212.822 157.967Z" fill="#8484FD"/>
<path d="M212.822 157.967L220.529 164.82C220.529 164.82 220.853 167.09 221.332 171.233C216.466 170.91 211.718 169.596 207.38 167.37C207.38 167.37 196.556 171.528 194.333 178.478C192.11 185.427 206.583 246.346 206.583 246.346C206.583 246.346 182.856 298.987 181.826 308.163C181.034 315.306 201.751 319.14 211 320.493C210.517 321.676 210.246 322.328 210.246 322.328C210.246 322.328 202.847 325.226 189.433 323.014C176.018 320.802 165.517 311.293 166.13 306.767C166.744 302.242 194.98 252.479 193.98 246.505C192.98 240.531 183.03 217.195 180.715 200.244C178.4 183.293 180.952 172.455 188.108 167.597C195.265 162.738 212.822 157.967 212.822 157.967Z" fill="#706CD4"/>
<path d="M203.307 147.014C207.989 143.633 218.437 144.309 224.086 145.85C229.735 147.39 237.134 149.646 237.134 149.646L235.766 160.237C235.766 160.237 227.754 156.373 219.877 157.774C212 159.174 209.521 160.898 209.521 160.898C209.521 160.898 207.67 161.304 205.655 157.518C203.64 153.731 203.307 147.014 203.307 147.014Z" fill="#3A2F8B"/>
<path d="M236.341 148.409C236.341 148.409 246.625 151.751 248.157 152.514C249.689 153.277 247.852 158.691 247.239 160.212C246.625 161.734 246.403 164.076 244.528 163.767C242.653 163.458 236.965 161.835 236.965 161.835C236.965 161.835 234.089 157.397 234.065 154.427C234.041 151.457 236.341 148.409 236.341 148.409Z" fill="#5F58DF"/>
<path d="M238.709 160.787C238.709 160.787 240.386 160.551 240.811 162.057C241.237 163.564 237.723 166.249 231.963 166.858C226.203 167.466 216.726 165.853 214.822 165.279C212.918 164.704 212.068 162.98 212.933 161.686C213.798 160.391 216.726 159.387 216.726 159.387L238.709 160.787Z" fill="#FFD598"/>
<path d="M213.479 135.201C215.412 147.202 213.479 161.28 213.479 161.28C218.248 163.263 223.307 164.463 228.46 164.834C236.525 165.288 239.439 161.12 239.439 161.12C239.439 161.12 237.023 157.952 237.085 150.447C237.187 145.317 237.657 140.201 238.492 135.138L213.479 135.201Z" fill="#E27E75"/>
<path d="M204.602 146.284C204.896 150.665 210.043 151.452 215.673 152.756C221.303 154.06 224.371 154.591 224.444 156.277C224.516 157.962 224.927 167.935 222.941 169.393C220.955 170.852 210.14 166.728 206.37 165.313C202.601 163.897 200.678 160.995 200.542 159.725C200.407 158.455 201.088 150.843 201.635 148.578C202.181 146.313 204.602 146.284 204.602 146.284Z" fill="#5F58DF"/>
<path d="M243.29 164.965C243.29 164.965 257.677 175.59 263.103 237.513C266.868 280.461 262.456 309.646 259.402 323.501L259.271 323.221C259.271 323.221 255.227 324.023 254.922 321.855C254.618 319.686 261.354 270.662 258.89 232.992C256.425 195.323 241.787 168.674 241.787 168.674L243.281 164.95L243.29 164.965Z" fill="#E0E4FF"/>
<path d="M237.96 138.572L237.999 138.833C237.481 142.687 237.191 146.569 237.129 150.457C237.071 157.962 239.482 161.135 239.482 161.135C239.368 161.286 239.244 161.43 239.11 161.565C237.596 158.94 236.745 155.986 236.631 152.959C236.375 146.99 237.96 138.572 237.96 138.572Z" fill="#A4FFE9"/>
<path d="M238.535 135.152C237.926 138.875 237.503 142.626 237.269 146.391C231.852 146.351 226.455 145.739 221.167 144.565C218.181 143.86 215.929 143.271 214.228 142.788C214.116 140.245 213.866 137.711 213.479 135.196L238.535 135.152Z" fill="#CB5863"/>
<path d="M269.734 175.565C269.734 175.565 268.767 169.958 270.217 166.665C271.667 163.371 276.557 158.73 277.949 154.432C279.341 150.133 282.781 153.823 282.375 157.643C281.969 161.463 279.384 163.767 278.258 168.002C277.132 172.238 278.099 174.218 275.624 175.136C273.15 176.053 270.265 175.532 270.265 175.532L269.734 175.565Z" fill="#EE9585"/>
<path d="M279.853 152.514C281.235 152.703 282.617 155.142 282.351 157.643C281.945 161.463 279.365 163.767 278.234 168.002C277.209 171.842 277.91 173.836 276.199 174.855C275.511 174.906 274.824 174.748 274.226 174.404C273.628 174.06 273.147 173.544 272.846 172.924C272.667 167.51 271.787 167.8 273.677 164.448C275.566 161.096 276.992 160.29 278.509 156.421C279.118 154.847 279.548 153.533 279.853 152.514ZM272.846 172.904C272.846 172.967 272.846 173.02 272.846 173.083L272.73 172.682C272.73 172.682 272.768 172.769 272.841 172.904H272.846Z" fill="#E07C74"/>
<path d="M260.267 174.208C274.426 181.452 281.713 198.838 281.713 198.838C281.713 198.838 239.772 236.252 235.322 238.778C230.871 241.304 182.696 213.182 172.33 206.904C161.564 200.384 156.18 181.138 169.687 172.614C183.194 164.09 193.144 175.879 199.131 180.187C207.67 186.354 228.46 201.432 228.46 201.432L260.267 174.208Z" fill="#B5BDF1"/>
<path d="M279.51 198.124C281.317 196.448 287.242 193.458 289.895 190.397C292.548 187.335 298.883 171.079 298.883 171.079C298.883 171.079 295.602 164.8 289.426 161.502C283.25 158.203 278.993 158.179 278.993 158.179C278.993 158.179 270.159 174.488 268.743 175.498C267.327 176.507 264.07 179.183 264.07 179.183L279.51 198.124Z" fill="#EE9585"/>
<path d="M278.321 159.324C278.321 159.324 282.776 149.182 284.265 146.989C285.753 144.797 292.292 140.103 294.065 137.76C295.839 135.418 298.24 136.645 297.216 141.006C296.197 145.119 294.362 148.985 291.818 152.374C289.619 155.272 285.42 162.999 285.42 162.999C285.42 162.999 282.486 161.951 280.587 161.125C278.688 160.299 278.321 159.305 278.321 159.305V159.324Z" fill="#EE9585"/>
<path d="M283.308 160.734C283.308 160.734 289.74 151.524 290.972 149.853C292.205 148.182 298.704 144.014 300.797 141.885C302.889 139.755 305.32 140.687 304.407 144.406C303.493 148.124 299.821 151.872 298.182 153.809C296.544 155.745 292.697 165.076 292.697 165.076C292.697 165.076 289.89 165.559 287.764 164.371C285.637 163.183 283.308 160.734 283.308 160.734Z" fill="#EE9585"/>
<path d="M290.015 164.245C290.015 164.245 298.559 154.721 300.579 153.437C302.599 152.152 306.33 150.056 309.065 148.52C311.8 146.984 313.646 151.297 312.018 154.045C310.389 156.793 302.353 162.038 299.99 163.854C298.077 165.43 296.263 167.122 294.558 168.92C294.558 168.92 293.417 168.954 291.697 167.539C291.198 167.141 290.791 166.641 290.501 166.073C290.211 165.505 290.045 164.882 290.015 164.245Z" fill="#EE9585"/>
<path d="M293.688 167.867C293.688 167.867 301.807 159.86 304.682 157.899C307.557 155.938 308.727 154.127 310.389 154.388C312.051 154.649 312.704 159.343 310.346 162.376C307.987 165.409 299.564 170.586 297.781 173.286C295.998 175.986 294.882 173.522 293.838 171.431C292.794 169.34 293.683 167.867 293.683 167.867H293.688Z" fill="#EE9585"/>
<path d="M295.955 136.592C297.085 136.63 297.887 138.142 297.216 141.006C296.796 142.759 296.215 144.469 295.481 146.115L296.075 145.671L295.592 146.212C295.592 146.212 292.296 148.313 291.243 149.419C290.189 150.525 284.231 159.314 284.231 159.314C283.889 159.037 283.641 158.663 283.519 158.24C283.397 157.818 283.408 157.369 283.55 156.953C284.033 155.412 285.038 153.152 288.102 149.829C291.166 146.506 292.2 145.207 292.2 145.207C292.926 144.436 293.519 143.55 293.954 142.585C294.307 141.716 294.882 139.282 294.336 137.49C294.528 137.23 294.775 137.016 295.059 136.861C295.342 136.706 295.656 136.614 295.979 136.592H295.955ZM303.121 140.769C304.266 140.846 304.996 142.083 304.421 144.406C303.508 148.124 299.835 151.872 298.197 153.809C297.306 155.087 296.54 156.449 295.911 157.875C296.829 156.909 297.728 156.011 298.511 155.248C297.167 156.663 296.225 157.716 296.225 157.716L290.209 163.806C290.209 163.806 289.199 162.965 289.503 161.966C289.808 160.966 293.272 156.214 294.988 153.181C296.801 150.104 298.905 147.208 301.27 144.531C302.691 142.889 302.614 141.551 302.087 140.977C302.41 140.825 302.765 140.754 303.121 140.769ZM312.303 149.945C312.565 150.604 312.677 151.313 312.63 152.021C312.583 152.729 312.379 153.417 312.032 154.036C311.848 154.326 311.639 154.601 311.409 154.857C311.207 154.68 310.968 154.55 310.71 154.476C310.452 154.403 310.18 154.387 309.915 154.432C308.669 154.601 308.316 155.397 305.938 156.711C303.561 158.025 294.582 166.694 294.582 166.694C294.582 166.694 294.002 164.762 295.263 163.434C296.525 162.106 302.594 156.098 305.673 154.103C308.751 152.109 308.867 151.79 310.824 151.447C311.192 151.382 311.532 151.206 311.797 150.941C312.061 150.677 312.238 150.337 312.303 149.969V149.945ZM311.694 159.416C311.468 160.489 311.006 161.499 310.341 162.371C308.147 165.196 300.705 169.871 298.26 172.682C296.636 176.749 292.06 187.934 289.904 190.416C287.256 193.454 281.327 196.443 279.519 198.143L277.393 195.54C279.128 194.294 281.805 192.367 284.589 190.329C288.58 187.431 294.292 175.329 295.737 172.943C297.182 170.557 296.815 170.094 299.279 168.736C301.744 167.379 306.18 163.511 308.881 161.642C309.891 160.997 310.836 160.256 311.703 159.43L311.694 159.416Z" fill="#E07C74"/>
<path d="M177.477 169.731C167.996 175.556 167.609 184.848 169.209 191.223C171.195 199.22 229.788 223.947 229.788 223.947C229.788 223.947 231.47 221.387 231.238 216.046C231.108 212.848 230.678 209.669 229.953 206.551C229.953 206.551 234.196 211.864 234.872 215.196C235.271 217.412 235.301 219.679 234.959 221.904C234.959 221.904 271.348 198.037 271.009 193.362C270.734 189.59 263.852 178.84 261.103 174.672C274.706 182.167 281.704 198.858 281.704 198.858C281.704 198.858 239.763 236.272 235.312 238.798C230.861 241.323 182.682 213.201 172.321 206.923C161.549 200.403 156.176 181.158 169.677 172.634C172.013 171.096 174.666 170.105 177.438 169.736L177.477 169.731Z" fill="#99A0D6"/>
<path d="M258.493 91.0449C264.263 88.1472 268.115 84.0229 267.776 79.3479C267.438 74.673 262.871 73.8086 262.871 73.8086C262.871 73.8086 264.369 71.8285 264.22 69.5586C264.07 67.2888 262.538 66.7237 262.538 66.7237C262.538 66.7237 269.183 64.9513 267.37 57.9244C265.558 50.8976 258.271 53.5779 258.271 53.5779C258.271 53.5779 260.687 45.8508 252.801 43.4602C244.914 41.0696 242.353 45.7252 235.525 51.3419C228.696 56.9586 215.653 61.619 204.853 61.648C194.052 61.6769 190.684 60.8849 184.397 67.9794C178.11 75.0739 177.864 88.606 177.714 92.9574C177.564 97.3087 181.502 117.52 181.309 127.353C181.116 137.186 179.453 140.392 185.798 141.745C192.143 143.097 194.98 137.369 194.98 137.369C194.98 137.369 194.816 139.856 201.431 139.658C208.047 139.46 211.947 129.333 211.947 129.333L258.493 91.0449Z" fill="#322483"/>
<path d="M199.503 61.6334C201.074 61.6334 202.843 61.6334 204.867 61.6334H205.099C200.412 68.3319 209.125 80.3379 209.125 80.3379C209.125 80.3379 208.927 89.9293 208.951 95.5459C208.951 99.5399 211.715 118.157 211.454 130.473C210.207 133.124 206.68 139.489 201.446 139.649C194.83 139.842 194.995 137.359 194.995 137.359C194.995 137.359 192.158 143.073 185.813 141.73C179.468 140.387 181.125 137.171 181.319 127.338C181.512 117.505 177.578 97.2942 177.728 92.9428C177.878 88.5915 178.12 75.0738 184.412 67.9649C189.519 62.1985 192.694 61.6431 199.503 61.6238V61.6334Z" fill="#26185C"/>
<path d="M261.185 89.3547C261.185 98.4921 263.272 101.172 264.263 110.199C265.254 119.225 262.374 134.172 250.52 137.133C238.666 140.093 218.142 139.972 207.361 138.026C196.58 136.08 194.874 120.234 194.874 120.234C194.874 120.234 189.795 124.069 185.016 121.374C180.236 118.679 175.491 110.952 181.328 106.103C187.166 101.255 193.158 106.852 193.158 106.852L193.25 99.2261C193.25 99.2261 192.593 101.752 196.555 103.693C200.518 105.635 201.702 96.9321 201.702 96.9321C203.795 97.2602 205.939 96.9223 207.83 95.9663C211.067 94.3629 211.899 85.6264 211.899 85.6264C211.899 85.6264 216.398 76.6677 224.758 76.2331C233.118 75.7984 245.586 77.6143 250.423 78.7975C253.284 79.5024 256.308 79.0586 258.846 77.5612C258.846 77.5612 260.576 86.119 261.185 89.374V89.3547Z" fill="#EE9585"/>
<path d="M248.886 42.8035C250.221 42.8202 251.546 43.0401 252.815 43.4554C260.682 45.8702 258.285 53.5973 258.285 53.5973C258.285 53.5973 265.592 50.9218 267.385 57.9438C269.178 64.9659 262.553 66.7431 262.553 66.7431C262.553 66.7431 264.084 67.313 264.234 69.5828C264.384 71.8527 262.886 73.8279 262.886 73.8279C263.126 73.8786 263.361 73.9464 263.591 74.0308C263.166 74.2771 262.9 74.4074 262.9 74.4074C262.9 74.4074 261.383 72.4177 262.002 70.0609C262.62 67.7042 259.532 65.869 259.532 65.869C259.532 65.869 261.615 64.0193 262.915 62.7346C264.215 61.45 265.331 57.6878 261.982 56.3453C260.942 55.9632 259.834 55.7995 258.727 55.8643C257.62 55.9291 256.539 56.2211 255.55 56.722C255.55 56.722 258.59 43.7693 248.041 45.0009C241.43 45.7736 240.386 51.2212 226.594 58.1805C212.802 65.1397 200.673 62.102 200.673 62.102L201.456 61.619C202.514 61.619 203.63 61.619 204.872 61.619C215.673 61.5901 228.716 56.9296 235.544 51.313C241.092 46.754 243.836 42.8034 248.891 42.7793L248.886 42.8035Z" fill="#A4FFE9"/>
<path d="M264.104 109.45L264.195 109.638C264.195 109.827 264.239 110.001 264.263 110.194C265.254 119.22 262.374 134.172 250.52 137.132C248.954 137.524 247.233 137.862 245.407 138.147C247.069 137.746 248.79 137.292 250.114 136.833C254.067 135.476 257.894 133.076 261.277 126.121C264.659 119.167 264.104 109.45 264.104 109.45Z" fill="#A4FFE9"/>
<path d="M193.25 99.2261V100.052C193.201 99.7788 193.201 99.4991 193.25 99.2261ZM193.25 100.052C193.381 100.955 194.019 102.442 196.57 103.689C198.363 104.567 199.586 103.259 200.388 101.564C204.713 105.166 208.12 111.43 208.12 111.43C207.105 121.089 210.773 132.467 218.959 136.664C221.278 137.852 223.149 138.741 224.666 139.412C218.089 139.33 211.865 138.837 207.356 138.021C196.575 136.089 194.869 120.234 194.869 120.234C193.403 121.266 191.723 121.952 189.954 122.243C187.814 111.198 187.306 110.715 187.688 106.552C187.752 105.787 187.86 105.026 188.012 104.273C189.917 104.684 191.686 105.571 193.153 106.852L193.25 100.052Z" fill="#E07C74"/>
<path d="M253.187 93.9475C252.293 93.9475 251.568 95.2998 251.568 96.9659C251.568 98.6321 252.293 99.9892 253.187 99.9892C254.081 99.9892 254.801 98.6369 254.801 96.9659C254.801 95.2949 254.076 93.9475 253.187 93.9475Z" fill="white"/>
<path d="M226.411 93.9475C225.517 93.9475 224.792 95.2998 224.792 96.9659C224.792 98.6321 225.517 99.9892 226.411 99.9892C227.305 99.9892 228.025 98.6369 228.025 96.9659C228.025 95.2949 227.3 93.9475 226.411 93.9475Z" fill="white"/>
<path d="M246.045 101.636C246.045 101.636 249.514 104.389 248.906 107.6C248.297 110.812 244.228 110.812 244.228 110.812C244.228 110.812 247.127 110.189 247.755 107.861C248.384 105.533 246.045 101.636 246.045 101.636Z" fill="#AE3C36"/>
<path d="M228.769 90.1852C228.769 90.1852 227.889 89.1372 224.748 89.3304C221.607 89.5236 219.587 92.0784 219.587 92.0784" fill="white"/>
<path d="M257.019 90.2143C257.019 90.2143 256.536 88.5095 253.801 88.6833C251.066 88.8572 248.727 90.6972 248.727 90.6972" fill="white"/>
<path d="M243.126 114.371C236.254 114.371 231.344 112.845 230.339 114.313C229.334 115.781 231.417 125.952 238.84 128.319C246.141 130.637 251.795 125.218 252.491 118.109C253.062 112.314 251.786 113.188 249.486 113.724C247.185 114.26 243.126 114.381 243.126 114.381V114.371Z" fill="#8E3442"/>
<path d="M251.462 113.328H251.549C251.515 114.864 251.365 116.8 250.819 117.25C249.887 118.013 240.826 118.216 235.959 117.94C231.093 117.665 231.127 116.598 230.996 115.187C230.964 114.747 230.954 114.305 230.967 113.864C232.722 113.232 237.192 114.347 243.126 114.347C243.126 114.347 247.185 114.226 249.485 113.69C250.128 113.489 250.791 113.36 251.462 113.304V113.328Z" fill="white"/>
<path d="M241.299 120.297C242.995 120.331 244.66 120.752 246.168 121.528C247.676 122.304 248.986 123.414 249.998 124.774C247.548 128.097 243.527 129.821 238.815 128.324C236.472 127.531 234.454 125.992 233.07 123.943C234.027 122.787 235.232 121.859 236.595 121.228C237.958 120.598 239.445 120.279 240.946 120.297H241.299Z" fill="#FF99B4"/>
<path d="M214.924 111.99L211.126 114.337L207.1 115.371C207.1 115.371 207.221 115.226 204.239 112.845C201.258 110.464 198.595 111.729 198.595 111.729C198.595 111.729 200.586 104.485 197.778 100.622C196.036 98.2559 193.781 96.3143 191.182 94.9423L198.74 88.4563C198.74 88.4563 204.954 88.8088 208.859 93.846C212.764 98.8831 214.924 111.99 214.924 111.99Z" fill="#404174"/>
<path d="M176.245 93.9859C176.245 93.9859 174.93 80.4634 181.894 69.9352C188.858 59.407 205.293 59.716 205.293 59.716C205.293 59.716 197.078 62.8021 193.497 69.7806C189.916 76.7592 189.046 92.7592 189.046 92.7592C189.046 92.7592 187.229 93.9424 183.914 94.1308C181.357 94.2227 178.797 94.1743 176.245 93.9859Z" fill="#525582"/>
<path d="M215.484 80.1062C206.859 83.5834 203.138 82.6658 201.543 83.3226C199.948 83.9794 197.194 89.6734 197.194 89.6734C197.194 89.6734 202.074 95.4108 203.147 100.506C204.22 105.601 205.472 105.548 205.472 105.548C205.472 105.548 206.211 105.606 208.613 108.856C211.014 112.106 211.121 114.352 211.121 114.352C211.121 114.352 223.284 112.855 225.618 111.218C227.952 109.58 235.452 100.757 248.944 102.09C262.437 103.423 264.041 110.933 265.259 111.266C266.477 111.599 270.014 109.981 270.425 108.006C270.835 106.031 270.256 97.019 270.256 97.019L215.484 80.1062Z" fill="#525582"/>
<path d="M191.457 92.8559C191.457 92.8559 188.558 80.8112 195.265 69.5344C201.973 58.2576 212.561 60.7689 212.561 60.7689L215.025 60.0252C215.025 60.0252 205.94 57.031 199.465 62.1792C192.989 67.3274 190.525 70.7128 188.456 78.9084C185.977 88.746 187.49 93.8797 187.49 93.8797L191.457 92.8559Z" fill="#7B7D9D"/>
<path d="M267.1 76.1606C272.474 76.885 274.986 79.9855 275.397 88.1135C275.808 96.2415 275.146 102.051 267.723 102.394C260.301 102.737 259.658 100.076 250.37 99.4579C241.082 98.8397 234.587 104.461 226.749 104.563C218.911 104.664 217.04 104.679 214.547 98.0477C212.053 91.4168 208.796 79.2128 218.645 76.5228C228.493 73.8328 255.545 74.5475 267.1 76.1606Z" fill="#7B7D9D"/>
<path d="M184.909 89.6152C175.621 89.6152 168.087 97.8736 168.087 108.059C168.087 118.244 175.621 126.503 184.909 126.503C194.197 126.503 201.726 118.244 201.726 108.059C201.726 97.8736 194.197 89.6152 184.909 89.6152Z" fill="#7B7D9D"/>
<path d="M179.333 123.204C172.693 123.204 167.31 116.612 167.31 108.479C167.31 100.347 172.693 93.7542 179.333 93.7542C185.973 93.7542 191.356 100.347 191.356 108.479C191.356 116.612 185.973 123.204 179.333 123.204Z" fill="#525582"/>
<path d="M179.333 117.003C175.508 117.003 172.408 113.187 172.408 108.479C172.408 103.772 175.508 99.9553 179.333 99.9553C183.157 99.9553 186.258 103.772 186.258 108.479C186.258 113.187 183.157 117.003 179.333 117.003Z" fill="#404174"/>
<path d="M266.791 78.0632C269.091 78.3723 270.323 78.9953 271.338 80.4152C272.353 81.835 273.082 84.3126 273.271 88.2051C273.469 92.1991 273.334 95.5072 272.507 97.497C271.681 99.4867 270.71 100.327 267.602 100.472C265.164 100.643 262.716 100.303 260.417 99.4722C257.215 98.3917 253.883 97.7421 250.51 97.5405C245.368 97.1976 241.048 98.5885 237.23 99.9552C233.413 101.322 230.078 102.602 226.71 102.645C222.786 102.693 220.626 102.597 219.587 102.119C218.548 101.641 217.731 100.607 216.538 97.4294C215.344 94.2516 213.977 89.6395 214.073 85.8387C214.046 84.1564 214.474 82.4981 215.31 81.0382C216.103 79.797 217.243 78.8939 219.239 78.3433C223.588 77.1456 232.862 76.5902 242.213 76.6337C251.563 76.6772 261.19 77.2712 266.771 78.0487L266.791 78.0632Z" fill="#52FFD4"/>
<path d="M238.318 76.6675L251.544 97.6273L250.52 97.5452C245.992 97.241 242.102 98.289 238.632 99.477L223.651 77.5561C228.519 76.9937 233.413 76.7003 238.313 76.6771L238.318 76.6675ZM249.964 76.8317C254.381 76.9862 258.585 77.2422 262.094 77.5609L273.329 92.6095C273.335 94.281 273.059 95.9416 272.512 97.5211C271.7 99.477 270.739 100.327 267.728 100.486L249.964 76.8317ZM216.026 80.1592L227.962 102.597C227.546 102.639 227.131 102.663 226.715 102.669C222.796 102.718 220.631 102.621 219.592 102.143C218.553 101.665 217.736 100.626 216.543 97.4535C215.349 94.2805 213.982 89.6636 214.078 85.8628C214.051 84.1805 214.479 82.5222 215.315 81.0623C215.525 80.736 215.762 80.429 216.026 80.1447V80.1592Z" fill="#DCFFF6"/>
<path opacity="0.73" d="M483.56 146.68L337.204 165.032C335.368 165.264 333.198 167.819 332.372 170.75L286.773 328.099C286.101 330.417 286.894 332.04 288.551 331.741L421.241 307.502C422.739 307.226 424.653 305.203 425.532 302.947L484.551 151.384C485.648 148.574 485.208 146.473 483.56 146.68Z" fill="url(#paint2_linear_24_205)"/>
<path opacity="0.73" d="M469.899 159.459L458.514 160.937C456.846 161.149 454.672 163.574 453.633 166.36L405.477 295.742C404.622 298.045 405.168 299.673 406.705 299.398L417.22 297.538C418.743 297.268 420.671 295.206 421.57 292.912L470.948 164.086C472.011 161.314 471.547 159.247 469.899 159.459Z" fill="white"/>
<path opacity="0.73" d="M441.069 175.652L429.036 177.285C427.499 177.488 425.532 179.699 424.633 182.211L382.634 300.141C381.881 302.257 382.427 303.754 383.852 303.493L395.025 301.498C396.441 301.247 398.2 299.349 398.973 297.239L442.151 179.815C443.074 177.309 442.591 175.45 441.069 175.652Z" fill="white"/>
<path opacity="0.73" d="M408.59 202.881L395.542 204.745C394.266 204.929 392.686 206.711 392 208.729L359.323 304.903C358.728 306.656 359.216 307.893 360.41 307.675L372.694 305.483C373.878 305.27 375.323 303.701 375.937 301.952L409.585 206.189C410.295 204.175 409.851 202.693 408.59 202.881Z" fill="white"/>
<path opacity="0.73" d="M371.568 245.747L356.911 248.041C356.104 248.167 355.138 249.258 354.741 250.456L335.445 310.206C335.083 311.326 335.416 312.114 336.19 311.973L350.276 309.457C351.045 309.317 351.958 308.313 352.335 307.202L372.269 247.698C372.68 246.5 372.365 245.621 371.568 245.747Z" fill="white"/>
<path opacity="0.73" d="M86.2078 55.1046C74.6093 75.9475 69.1397 101.148 72.9469 117.176C76.3102 133.278 88.2735 140.21 102.625 134.179C110.973 130.804 120.022 123.353 127.988 113.178L88.9385 50.5657L86.1987 55.0934L86.2078 55.1046Z" fill="url(#paint3_linear_24_205)"/>
<path opacity="0.73" d="M141.548 19.5104C139.113 18.4301 136.836 17.0093 133.955 17.0053L113.426 76.0529L132.581 106.633C147.919 84.4455 155.886 53.7133 151.102 35.0747C149.434 27.8614 145.973 22.7542 141.528 19.5083L141.548 19.5104Z" fill="url(#paint4_linear_24_205)"/>
<path opacity="0.73" d="M126.075 17.4378C115.379 20.2465 103.204 29.8691 93.3109 43.9873L110.512 71.405L129.272 17.0181L126.075 17.4378Z" fill="url(#paint5_linear_24_205)"/>
<g opacity="0.73">
<path d="M398.403 172.267L372.24 175.696C371.757 175.759 370.843 177.347 370.239 179.245C369.635 181.143 369.558 182.626 370.06 182.539L396.117 179.062C396.6 178.999 397.514 177.434 398.147 175.556C398.78 173.677 398.896 172.204 398.403 172.267Z" fill="white"/>
<path d="M394.749 183.143L368.751 186.649C368.268 186.717 367.369 188.281 366.774 190.15C366.18 192.019 366.107 193.459 366.605 193.391L392.522 189.841C393.005 189.779 393.904 188.233 394.527 186.383C395.15 184.534 395.242 183.08 394.749 183.143Z" fill="white"/>
<path d="M391.154 193.859L365.315 197.443C364.832 197.511 363.947 199.051 363.382 200.896C362.816 202.741 362.73 204.151 363.227 204.083L388.941 200.466C389.424 200.394 390.308 198.877 390.922 197.052C391.536 195.226 391.642 193.792 391.154 193.859Z" fill="white"/>
<path d="M387.612 204.417L342.844 210.787C342.361 210.859 341.491 212.39 340.911 214.211C340.331 216.032 340.312 217.437 340.814 217.364L385.428 210.917C385.911 210.845 386.785 209.348 387.39 207.536C387.994 205.725 388.095 204.335 387.612 204.407V204.417Z" fill="white"/>
<path d="M380.677 225.067L336.465 231.684C335.982 231.756 335.131 233.244 334.595 235.016C334.058 236.788 334.02 238.141 334.513 238.068L378.561 231.375C379.044 231.302 379.894 229.844 380.494 228.095C381.093 226.347 381.156 224.995 380.677 225.067Z" fill="white"/>
<path d="M384.118 214.819L339.63 221.315C339.147 221.387 338.292 222.894 337.741 224.696C337.19 226.497 337.156 227.869 337.654 227.796L381.968 221.233C382.451 221.16 383.316 219.683 383.9 217.91C384.485 216.138 384.592 214.757 384.108 214.829L384.118 214.819Z" fill="white"/>
</g>
<g opacity="0.76">
<path d="M137.769 166.365L21.4707 132.53C19.0932 131.839 18.146 133.621 19.3396 136.514L76.6865 275.922C77.7931 278.616 80.5863 281.471 82.9687 282.33L198.465 324.274C201.147 325.24 202.432 323.748 201.364 320.893L144.824 173.329C143.645 170.253 140.514 167.143 137.807 166.356L137.769 166.365Z" fill="url(#paint6_linear_24_205)"/>
<path d="M64.5521 193.594C73.6033 215.896 96.4463 239.039 116.018 245.636C136.024 252.397 145.36 239.469 136.382 216.423C127.297 193.096 103.246 169.036 83.1667 163.057C63.5179 157.204 55.3994 171.035 64.5521 193.594Z" fill="#ABB9D2"/>
<path d="M168.387 278.22L131.143 265.379C128.602 264.505 127.466 266.074 128.587 268.89L133.004 279.998C134.115 282.794 137.044 285.793 139.581 286.667L176.791 299.856C179.434 300.793 180.657 299.257 179.579 296.398L175.191 285.04C174.07 282.19 171.035 279.133 168.387 278.22Z" fill="#724BBC"/>
<path d="M113.896 259.786L78.7306 247.655C76.3143 246.824 75.3092 248.379 76.4351 251.132L80.881 262.003C81.9973 264.737 84.8194 267.615 87.2163 268.465L122.348 280.93C124.847 281.814 125.963 280.287 124.852 277.501L120.43 266.393C119.309 263.587 116.395 260.627 113.896 259.767V259.786Z" fill="white"/>
<path d="M90.2802 205.32C94.9387 210.758 100.105 214.689 104.473 216.099C108.842 217.509 111.915 216.283 113.056 212.767C123.035 220.011 132.414 231.283 136.923 242.328C133.057 247.64 125.518 248.828 116.018 245.636C106.609 242.453 95.9921 235.253 86.4287 225.594C82.2293 214.776 84.0125 207.203 90.2947 205.31L90.2802 205.32Z" fill="url(#paint7_linear_24_205)"/>
<path d="M82.8527 190.971C86.9313 201.152 96.1372 211.255 103.492 213.636C110.847 216.017 113.689 209.642 109.605 199.35C105.522 189.059 96.1227 178.704 88.7 176.449C81.2773 174.194 78.7499 180.738 82.8527 190.971Z" fill="url(#paint8_linear_24_205)"/>
</g>
<path d="M431.827 348V408.204L465.654 399.149L431.827 348Z" fill="#D5D5FF"/>
<path d="M431.827 348V408.204L398 399.149L431.827 348Z" fill="#9191FF"/>
<path d="M431.827 408.204V454.857L465.654 399.149L431.827 408.204Z" fill="#BCBCFF"/>
<path d="M431.827 408.204V454.857L398 399.149L431.827 408.204Z" fill="#8787F6"/>
<path d="M61.2943 225V277.158L90.5984 269.305L61.2943 225Z" fill="#D5D5FF"/>
<path d="M61.2943 225V277.158L31.9999 269.315L61.2943 225Z" fill="#9191FF"/>
<path d="M61.2943 277.148V317.561L90.5984 269.305L61.2943 277.148Z" fill="#BCBCFF"/>
<path d="M61.2943 277.148V317.561L31.9999 269.305L61.2943 277.148Z" fill="#8787F6"/>
</g>
<defs>
<linearGradient id="paint0_linear_24_205" x1="448.472" y1="-36.86" x2="243.338" y2="-3.7882" gradientUnits="userSpaceOnUse">
<stop stop-color="#4EE6B8"/>
<stop offset="0.208333" stop-color="#2BB32A"/>
<stop offset="0.40625" stop-color="#24FF00"/>
<stop offset="0.604267" stop-color="#2BB32A"/>
<stop offset="0.802083" stop-color="#00FF29"/>
<stop offset="1" stop-color="#00FF29"/>
</linearGradient>
<linearGradient id="paint1_linear_24_205" x1="422.135" y1="62.0083" x2="351.746" y2="77.0153" gradientUnits="userSpaceOnUse">
<stop stop-color="#4EE6B8"/>
<stop offset="0.208333" stop-color="#2BB32A"/>
<stop offset="0.40625" stop-color="#24FF00"/>
<stop offset="0.604267" stop-color="#2BB32A"/>
<stop offset="0.802083" stop-color="#00FF29"/>
<stop offset="1" stop-color="#00FF29"/>
</linearGradient>
<linearGradient id="paint2_linear_24_205" x1="485.154" y1="61.6158" x2="241.614" y2="90.9104" gradientUnits="userSpaceOnUse">
<stop stop-color="#4EE6B8"/>
<stop offset="0.208333" stop-color="#2BB32A"/>
<stop offset="0.40625" stop-color="#24FF00"/>
<stop offset="0.604267" stop-color="#2BB32A"/>
<stop offset="0.802083" stop-color="#00FF29"/>
<stop offset="1" stop-color="#00FF29"/>
</linearGradient>
<linearGradient id="paint3_linear_24_205" x1="109.586" y1="33.8348" x2="157.009" y2="113.719" gradientUnits="userSpaceOnUse">
<stop stop-color="#4EE6B8"/>
<stop offset="0.208333" stop-color="#2BB32A"/>
<stop offset="0.40625" stop-color="#24FF00"/>
<stop offset="0.604267" stop-color="#2BB32A"/>
<stop offset="0.802083" stop-color="#00FF29"/>
<stop offset="1" stop-color="#00FF29"/>
</linearGradient>
<linearGradient id="paint4_linear_24_205" x1="160.198" y1="-4.26018" x2="205.178" y2="67.7477" gradientUnits="userSpaceOnUse">
<stop stop-color="#4EE6B8"/>
<stop offset="0.208333" stop-color="#2BB32A"/>
<stop offset="0.40625" stop-color="#24FF00"/>
<stop offset="0.604267" stop-color="#2BB32A"/>
<stop offset="0.802083" stop-color="#00FF29"/>
<stop offset="1" stop-color="#00FF29"/>
</linearGradient>
<linearGradient id="paint5_linear_24_205" x1="143.442" y1="-1.12063" x2="168.352" y2="35.3378" gradientUnits="userSpaceOnUse">
<stop stop-color="#4EE6B8"/>
<stop offset="0.208333" stop-color="#2BB32A"/>
<stop offset="0.40625" stop-color="#24FF00"/>
<stop offset="0.604267" stop-color="#2BB32A"/>
<stop offset="0.802083" stop-color="#00FF29"/>
<stop offset="1" stop-color="#00FF29"/>
</linearGradient>
<linearGradient id="paint6_linear_24_205" x1="201.74" y1="44.0796" x2="-23.2286" y2="68.0829" gradientUnits="userSpaceOnUse">
<stop stop-color="#4EE6B8"/>
<stop offset="0.208333" stop-color="#2BB32A"/>
<stop offset="0.40625" stop-color="#24FF00"/>
<stop offset="0.604267" stop-color="#2BB32A"/>
<stop offset="0.802083" stop-color="#00FF29"/>
<stop offset="1" stop-color="#00FF29"/>
</linearGradient>
<linearGradient id="paint7_linear_24_205" x1="136.923" y1="185.974" x2="72.5497" y2="195.024" gradientUnits="userSpaceOnUse">
<stop stop-color="#4EE6B8"/>
<stop offset="0.208333" stop-color="#2BB32A"/>
<stop offset="0.40625" stop-color="#24FF00"/>
<stop offset="0.604267" stop-color="#2BB32A"/>
<stop offset="0.802083" stop-color="#00FF29"/>
<stop offset="1" stop-color="#00FF29"/>
</linearGradient>
<linearGradient id="paint8_linear_24_205" x1="111.478" y1="158.485" x2="73.7393" y2="161.878" gradientUnits="userSpaceOnUse">
<stop stop-color="#4EE6B8"/>
<stop offset="0.208333" stop-color="#2BB32A"/>
<stop offset="0.40625" stop-color="#24FF00"/>
<stop offset="0.604267" stop-color="#2BB32A"/>
<stop offset="0.802083" stop-color="#00FF29"/>
<stop offset="1" stop-color="#00FF29"/>
</linearGradient>
<clipPath id="clip0_24_205">
<rect width="514" height="513" fill="white" transform="matrix(-1 0 0 1 514 0)"/>
</clipPath>
</defs>
</svg>
